<svg width="12" height="13" viewBox="0 0 12 13" fill="none" xmlns="http://www.w3.org/2000/svg">
<path d="M4.14645 9.14645C3.95118 9.34171 3.95118 9.65829 4.14645 9.85355C4.34171 10.0488 4.65829 10.0488 4.85355 9.85355L4.14645 9.14645ZM7.5 6.5L7.85355 6.85355C8.04882 6.65829 8.04882 6.34171 7.85355 6.14645L7.5 6.5ZM4.85355 3.14645C4.65829 2.95118 4.34171 2.95118 4.14645 3.14645C3.95118 3.34171 3.95118 3.65829 4.14645 3.85355L4.85355 3.14645ZM4.85355 9.85355L7.85355 6.85355L7.14645 6.14645L4.14645 9.14645L4.85355 9.85355ZM7.85355 6.14645L4.85355 3.14645L4.14645 3.85355L7.14645 6.85355L7.85355 6.14645Z" fill="#A8A8A8"/>
</svg>
